<?xml version="1.0" encoding="utf-8"?>
<!-- Generator: Adobe Illustrator 26.0.3, SVG Export Plug-In . SVG Version: 6.00 Build 0)  -->
<svg version="1.1" id="Layer_1" xmlns="http://www.w3.org/2000/svg" xmlns:xlink="http://www.w3.org/1999/xlink" x="0px" y="0px"
	 viewBox="0 0 2000 2000" style="enable-background:new 0 0 2000 2000;" xml:space="preserve">
<style type="text/css">
	.st0{display:none;fill:#FFFFFF;stroke:#000000;stroke-miterlimit:10;}
	.st1{fill:#1F2937;}
	.st2{fill:#FF6384;}
	.st3{fill:#35A2EB;}
</style>
<rect class="st0" width="2000" height="2000"/>
<g>
	<g>
		<path class="st1" d="M684.5,923.6h-57.2c-5.6,0-10.4-4.5-10.4-10.1s4.8-10.4,10.4-10.4h136.9c5.6,0,10.4,4.8,10.4,10.4
			s-4.8,10.1-10.4,10.1H707v166.7c0,6.5-4.8,11.3-11.3,11.3s-11.3-4.8-11.3-11.3L684.5,923.6L684.5,923.6z"/>
		<path class="st1" d="M875.4,1022.8l-73.2-102.5c-1.7-2.5-2.5-5.1-2.5-7.6c0-5.9,5.1-11,11.5-11c4.8,0,7.6,2.5,10.7,6.8l65.1,93.8
			l65.6-93.8c3.1-4.2,5.6-6.8,10.4-6.8c6.5,0,11,5.1,11,11c0,3.1-1.7,5.9-3.1,8.2L898,1022.3v68.1c0,6.5-4.8,11.3-11.3,11.3
			s-11.3-4.8-11.3-11.3V1022.8L875.4,1022.8z"/>
		<path class="st1" d="M1014.2,914.3c0-6.5,5.1-11.3,11-11.3h62.8c44.5,0,73.8,23.7,73.8,62.5v0.6c0,42.5-35.5,64.5-77.4,64.5h-47.9
			v59.7c0,6.5-4.8,11.3-11.3,11.3c-5.9,0-11-4.8-11-11.3L1014.2,914.3L1014.2,914.3z M1085.2,1010.4c32.7,0,54.1-17.5,54.1-43.4
			v-0.6c0-28.2-21.1-42.8-52.9-42.8h-49.8v86.7L1085.2,1010.4L1085.2,1010.4z"/>
		<path class="st1" d="M1213.3,1100.2c-5.9,0-11-4.8-11-11.3V914.3c0-6.5,5.1-11.3,11-11.3h122.5c5.6,0,10.1,4.5,10.1,10.1
			s-4.5,10.1-10.1,10.1h-111.2v67.3h98.6c5.6,0,10.1,4.8,10.1,10.1c0,5.6-4.5,10.1-10.1,10.1h-98.6v69h112.7
			c5.6,0,10.1,4.5,10.1,10.1s-4.5,10.1-10.1,10.1L1213.3,1100.2L1213.3,1100.2z"/>
		<path class="st1" d="M1440.6,1011.2h-49.3c-5.6,0-10.4-4.5-10.4-10.1s4.8-10.1,10.4-10.1h49.3v-48.7c0-5.9,4.8-10.4,10.7-10.4
			c5.6,0,10.4,4.5,10.4,10.4V991h49.6c5.6,0,10.1,4.5,10.1,10.1s-4.5,10.1-10.1,10.1h-49.6v48.7c0,5.9-4.8,10.4-10.4,10.4
			c-5.9,0-10.7-4.5-10.7-10.4V1011.2z"/>
		<path class="st1" d="M1616.6,1011.2h-49.3c-5.6,0-10.4-4.5-10.4-10.1s4.8-10.1,10.4-10.1h49.3v-48.7c0-5.9,4.8-10.4,10.7-10.4
			c5.6,0,10.4,4.5,10.4,10.4V991h49.6c5.6,0,10.1,4.5,10.1,10.1s-4.5,10.1-10.1,10.1h-49.6v48.7c0,5.9-4.8,10.4-10.4,10.4
			c-5.9,0-10.7-4.5-10.7-10.4V1011.2z"/>
	</g>
	<g>
		<g>
			<path class="st2" d="M494.8,1141.3c-4.7-6.5-12.3-10.4-20.3-10.4H196.3c-8.1,0-15.6,3.9-20.3,10.4l-44.9,61.8
				c-3.2,4.6,0,10.7,5.5,10.7h397.8c5.5,0,8.8-6.2,5.5-10.7L494.8,1141.3z"/>
			<path class="st2" d="M516.9,811.1c-9.8,0-17.7,8-17.7,17.7v283.4c0,5.4,1.6,10.4,4.9,14.8l41,56.4c3.9,5.2,12.2,2.6,12.2-3.9
				V851.4C557.2,829.1,539.1,811.1,516.9,811.1z"/>
			<path class="st2" d="M171.6,1112.2V829c0-9.8-8-17.7-17.7-17.7c-22.3,0-40.3,18-40.3,40.3v328.1c0,6.5,8.3,9.3,12.2,3.9l41-56.4
				C169.8,1122.8,171.6,1117.6,171.6,1112.2z"/>
			<path class="st2" d="M212.5,1115.1h245.7c13.8,0,25.2-11.2,25.2-25.2V838.2c0-18.7-15.1-33.8-33.8-33.8H221.1
				c-18.7,0-34,15.1-34,33.8v251.7C187.3,1103.9,198.5,1115.1,212.5,1115.1z M277.4,943.2h34.3v-34.3c0-13.7,11-24.5,24.5-24.5
				c13.6,0,24.5,11,24.5,24.5v34.3H395c13.6,0,24.5,11,24.5,24.5c0,13.7-11,24.5-24.5,24.5h-34.3v34.3c0,13.7-11,24.5-24.5,24.5
				c-13.6,0-24.5-11.1-24.5-24.5v-34.3h-34.3c-13.6,0-24.5-11-24.5-24.5S263.7,943.2,277.4,943.2z"/>
		</g>
		<g>
			<path class="st3" d="M484.5,1143.1c-4.7-6.5-12.3-10.4-20.3-10.4H186c-8.1,0-15.6,3.9-20.3,10.4l-44.9,61.8
				c-3.2,4.6,0,10.7,5.5,10.7h397.8c5.5,0,8.8-6.2,5.5-10.7L484.5,1143.1z"/>
			<path class="st3" d="M506.6,813c-9.8,0-17.7,8-17.7,17.7v283.4c0,5.4,1.6,10.4,4.9,14.8l41,56.4c3.9,5.2,12.2,2.6,12.2-3.9V853.3
				C546.9,831.1,528.9,813,506.6,813z"/>
			<path class="st3" d="M161.3,1114.2V830.8c0-9.8-8-17.7-17.7-17.7c-22.3,0-40.3,18-40.3,40.3v328.1c0,6.5,8.3,9.3,12.2,3.9
				l41-56.4C159.7,1124.6,161.3,1119.5,161.3,1114.2z"/>
			<path class="st3" d="M202.3,1116.9h245.9c13.8,0,25.2-11.2,25.2-25.2V840.2c0-18.7-15.1-33.8-34-33.8H211.1
				c-18.7,0-34,15.1-34,33.8v251.7C177.1,1105.7,188.3,1116.9,202.3,1116.9z M267.1,945h34.3v-34.3c0-13.7,11-24.5,24.5-24.5
				c13.6,0,24.5,11,24.5,24.5V945h34.6c13.6,0,24.5,11,24.5,24.5c0,13.7-11,24.5-24.5,24.5h-34.3v34.3c0,13.7-11,24.5-24.5,24.5
				c-13.6,0-24.5-11.1-24.5-24.5v-34.3h-34.3c-13.6,0-24.5-11-24.5-24.5C242.6,956,253.5,945,267.1,945z"/>
		</g>
		<g>
			<path class="st1" d="M489.7,1143.1c-4.7-6.5-12.3-10.4-20.3-10.4H191.1c-8.1,0-15.6,3.9-20.3,10.4l-44.9,61.8
				c-3.2,4.6,0,10.7,5.5,10.7h397.8c5.5,0,8.8-6.2,5.5-10.7L489.7,1143.1z"/>
			<path class="st1" d="M511.8,813c-9.8,0-17.7,8-17.7,17.7v283.4c0,5.4,1.6,10.4,4.9,14.8l41,56.4c3.9,5.2,12.2,2.6,12.2-3.9V853.3
				C552.1,831.1,534.1,813,511.8,813z"/>
			<path class="st1" d="M166.4,1114.2V830.8c0-9.8-8-17.7-17.7-17.7c-22.3,0-40.3,18-40.3,40.3v328.1c0,6.5,8.3,9.3,12.2,3.9
				l41-56.4C164.7,1124.6,166.4,1119.5,166.4,1114.2z"/>
			<path class="st1" d="M207.3,1116.9h245.9c13.8,0,25.2-11.2,25.2-25.2V840.2c0-18.7-15.1-33.8-33.8-33.8H216.1
				c-18.7,0-34,15.1-34,33.8v251.7C182.1,1105.7,193.5,1116.9,207.3,1116.9z M272.2,945h34.3v-34.3c0-13.7,11-24.5,24.5-24.5
				c13.6,0,24.5,11,24.5,24.5V945h34.3c13.6,0,24.5,11,24.5,24.5c0,13.7-11,24.5-24.5,24.5h-34v34.3c0,13.7-11,24.5-24.5,24.5
				c-13.6,0-24.5-11.1-24.5-24.5v-34.3h-34.3c-13.6,0-24.5-11-24.5-24.5C247.6,956,258.7,945,272.2,945z"/>
		</g>
	</g>
</g>
</svg>
