<?xml version="1.0" encoding="utf-8"?>
<!-- Generator: Adobe Illustrator 26.0.3, SVG Export Plug-In . SVG Version: 6.00 Build 0)  -->
<svg version="1.1" id="Layer_1" xmlns="http://www.w3.org/2000/svg" xmlns:xlink="http://www.w3.org/1999/xlink" x="0px" y="0px"
	 viewBox="0 0 2000 452.1" style="enable-background:new 0 0 2000 452.1;" xml:space="preserve">
<style type="text/css">
	.st0{display:none;fill:#FFFFFF;stroke:#000000;stroke-miterlimit:10;}
	.st1{fill:#E5E7EB;}
	.st2{fill:#FF6384;}
	.st3{fill:#35A2EB;}
</style>
<rect y="-769.8" class="st0" width="2000" height="2000"/>
<g>
	<g>
		<path class="st1" d="M784.2,143.8H727c-5.6,0-10.4-4.5-10.4-10.1s4.8-10.4,10.4-10.4h136.9c5.6,0,10.4,4.8,10.4,10.4
			s-4.8,10.1-10.4,10.1h-57.2v166.7c0,6.5-4.8,11.3-11.3,11.3s-11.3-4.8-11.3-11.3L784.2,143.8L784.2,143.8z"/>
		<path class="st1" d="M975.1,243l-73.2-102.5c-1.7-2.5-2.5-5.1-2.5-7.6c0-5.9,5.1-11,11.5-11c4.8,0,7.6,2.5,10.7,6.8l65.1,93.8
			l65.6-93.8c3.1-4.2,5.6-6.8,10.4-6.8c6.5,0,11,5.1,11,11c0,3.1-1.7,5.9-3.1,8.2l-72.9,101.4v68.1c0,6.5-4.8,11.3-11.3,11.3
			s-11.3-4.8-11.3-11.3V243L975.1,243z"/>
		<path class="st1" d="M1113.9,134.5c0-6.5,5.1-11.3,11-11.3h62.8c44.5,0,73.8,23.7,73.8,62.5v0.6c0,42.5-35.5,64.5-77.4,64.5h-47.9
			v59.7c0,6.5-4.8,11.3-11.3,11.3c-5.9,0-11-4.8-11-11.3L1113.9,134.5L1113.9,134.5z M1184.8,230.6c32.7,0,54.1-17.5,54.1-43.4v-0.6
			c0-28.2-21.1-42.8-52.9-42.8h-49.8v86.7L1184.8,230.6L1184.8,230.6z"/>
		<path class="st1" d="M1313,320.4c-5.9,0-11-4.8-11-11.3V134.5c0-6.5,5.1-11.3,11-11.3h122.5c5.6,0,10.1,4.5,10.1,10.1
			c0,5.6-4.5,10.1-10.1,10.1h-111.2v67.3h98.6c5.6,0,10.1,4.8,10.1,10.1c0,5.6-4.5,10.1-10.1,10.1h-98.6v69H1437
			c5.6,0,10.1,4.5,10.1,10.1s-4.5,10.1-10.1,10.1L1313,320.4L1313,320.4z"/>
		<path class="st1" d="M1540.2,231.4h-49.3c-5.6,0-10.4-4.5-10.4-10.1s4.8-10.1,10.4-10.1h49.3v-48.7c0-5.9,4.8-10.4,10.7-10.4
			c5.6,0,10.4,4.5,10.4,10.4v48.7h49.6c5.6,0,10.1,4.5,10.1,10.1s-4.5,10.1-10.1,10.1h-49.6v48.7c0,5.9-4.8,10.4-10.4,10.4
			c-5.9,0-10.7-4.5-10.7-10.4V231.4z"/>
		<path class="st1" d="M1716.2,231.4h-49.3c-5.6,0-10.4-4.5-10.4-10.1s4.8-10.1,10.4-10.1h49.3v-48.7c0-5.9,4.8-10.4,10.7-10.4
			c5.6,0,10.4,4.5,10.4,10.4v48.7h49.6c5.6,0,10.1,4.5,10.1,10.1s-4.5,10.1-10.1,10.1h-49.6v48.7c0,5.9-4.8,10.4-10.4,10.4
			c-5.9,0-10.7-4.5-10.7-10.4V231.4z"/>
	</g>
	<g>
		<g>
			<path class="st2" d="M594.5,361.5c-4.7-6.5-12.3-10.4-20.3-10.4H296c-8.1,0-15.6,3.9-20.3,10.4l-44.9,61.8
				c-3.2,4.6,0,10.7,5.5,10.7h397.8c5.5,0,8.8-6.2,5.5-10.7L594.5,361.5z"/>
			<path class="st2" d="M616.6,31.3c-9.8,0-17.7,8-17.7,17.7v283.4c0,5.4,1.6,10.4,4.9,14.8l41,56.4c3.9,5.2,12.2,2.6,12.2-3.9V71.6
				C656.9,49.3,638.8,31.3,616.6,31.3z"/>
			<path class="st2" d="M271.3,332.4V49.2c0-9.8-8-17.7-17.7-17.7c-22.3,0-40.3,18-40.3,40.3v328.1c0,6.5,8.3,9.3,12.2,3.9l41-56.4
				C269.5,343,271.3,337.8,271.3,332.4z"/>
			<path class="st2" d="M312.2,335.3h245.7c13.8,0,25.2-11.2,25.2-25.2V58.4c0-18.7-15.1-33.8-33.8-33.8H320.8
				c-18.7,0-34,15.1-34,33.8v251.7C287,324.1,298.2,335.3,312.2,335.3z M377.1,163.4h34.3v-34.3c0-13.7,11-24.5,24.5-24.5
				c13.6,0,24.5,11,24.5,24.5v34.3h34.3c13.6,0,24.5,11,24.5,24.5c0,13.7-11,24.5-24.5,24.5h-34.3v34.3c0,13.7-11,24.5-24.5,24.5
				c-13.6,0-24.5-11.1-24.5-24.5v-34.3h-34.3c-13.6,0-24.5-11-24.5-24.5S363.4,163.4,377.1,163.4z"/>
		</g>
		<g>
			<path class="st3" d="M584.2,363.3c-4.7-6.5-12.3-10.4-20.3-10.4H285.7c-8.1,0-15.6,3.9-20.3,10.4l-44.9,61.8
				c-3.2,4.6,0,10.7,5.5,10.7h397.8c5.5,0,8.8-6.2,5.5-10.7L584.2,363.3z"/>
			<path class="st3" d="M606.3,33.2c-9.8,0-17.7,8-17.7,17.7v283.4c0,5.4,1.6,10.4,4.9,14.8l41,56.4c3.9,5.2,12.2,2.6,12.2-3.9V73.5
				C646.6,51.3,628.6,33.2,606.3,33.2z"/>
			<path class="st3" d="M261,334.4V51c0-9.8-8-17.7-17.7-17.7c-22.3,0-40.3,18-40.3,40.3v328.1c0,6.5,8.3,9.3,12.2,3.9l41-56.4
				C259.4,344.8,261,339.7,261,334.4z"/>
			<path class="st3" d="M302,337.1h245.9c13.8,0,25.2-11.2,25.2-25.2V60.4c0-18.7-15.1-33.8-34-33.8H310.8c-18.7,0-34,15.1-34,33.8
				v251.7C276.8,325.9,288,337.1,302,337.1z M366.8,165.2h34.3v-34.3c0-13.7,11-24.5,24.5-24.5c13.6,0,24.5,11,24.5,24.5v34.3h34.6
				c13.6,0,24.5,11,24.5,24.5c0,13.7-11,24.5-24.5,24.5h-34.3v34.3c0,13.7-11,24.5-24.5,24.5c-13.6,0-24.5-11.1-24.5-24.5v-34.3
				h-34.3c-13.6,0-24.5-11-24.5-24.5C342.3,176.2,353.2,165.2,366.8,165.2z"/>
		</g>
		<g>
			<path class="st1" d="M589.4,363.3c-4.7-6.5-12.3-10.4-20.3-10.4H290.8c-8.1,0-15.6,3.9-20.3,10.4l-44.9,61.8
				c-3.2,4.6,0,10.7,5.5,10.7h397.8c5.5,0,8.8-6.2,5.5-10.7L589.4,363.3z"/>
			<path class="st1" d="M611.5,33.2c-9.8,0-17.7,8-17.7,17.7v283.4c0,5.4,1.6,10.4,4.9,14.8l41,56.4c3.9,5.2,12.2,2.6,12.2-3.9V73.5
				C651.8,51.3,633.8,33.2,611.5,33.2z"/>
			<path class="st1" d="M266.1,334.4V51c0-9.8-8-17.7-17.7-17.7c-22.3,0-40.3,18-40.3,40.3v328.1c0,6.5,8.3,9.3,12.2,3.9l41-56.4
				C264.4,344.8,266.1,339.7,266.1,334.4z"/>
			<path class="st1" d="M307,337.1h245.9c13.8,0,25.2-11.2,25.2-25.2V60.4c0-18.7-15.1-33.8-33.8-33.8H315.8
				c-18.7,0-34,15.1-34,33.8v251.7C281.8,325.9,293.2,337.1,307,337.1z M371.9,165.2h34.3v-34.3c0-13.7,11-24.5,24.5-24.5
				c13.6,0,24.5,11,24.5,24.5v34.3h34.3c13.6,0,24.5,11,24.5,24.5c0,13.7-11,24.5-24.5,24.5h-34v34.3c0,13.7-11,24.5-24.5,24.5
				c-13.6,0-24.5-11.1-24.5-24.5v-34.3h-34.3c-13.6,0-24.5-11-24.5-24.5C347.3,176.2,358.4,165.2,371.9,165.2z"/>
		</g>
	</g>
</g>
</svg>
