<?xml version="1.0" encoding="utf-8"?>
<!-- Generator: Adobe Illustrator 26.0.3, SVG Export Plug-In . SVG Version: 6.00 Build 0)  -->
<svg version="1.1" id="Layer_1" xmlns="http://www.w3.org/2000/svg" xmlns:xlink="http://www.w3.org/1999/xlink" x="0px" y="0px"
	 viewBox="0 0 2000 464.5" style="enable-background:new 0 0 2000 464.5;" xml:space="preserve">
<style type="text/css">
	.st0{display:none;fill:#FFFFFF;stroke:#000000;stroke-miterlimit:10;}
	.st1{fill:#1F2937;}
	.st2{fill:#FF6384;}
	.st3{fill:#35A2EB;}
</style>
<rect y="-767.5" class="st0" width="2000" height="2000"/>
<g>
	<g>
		<path class="st1" d="M784.2,146.1H727c-5.6,0-10.4-4.5-10.4-10.1s4.8-10.4,10.4-10.4h136.9c5.6,0,10.4,4.8,10.4,10.4
			s-4.8,10.1-10.4,10.1h-57.2v166.7c0,6.5-4.8,11.3-11.3,11.3s-11.3-4.8-11.3-11.3L784.2,146.1L784.2,146.1z"/>
		<path class="st1" d="M975.1,245.3l-73.2-102.5c-1.7-2.5-2.5-5.1-2.5-7.6c0-5.9,5.1-11,11.5-11c4.8,0,7.6,2.5,10.7,6.8l65.1,93.8
			l65.6-93.8c3.1-4.2,5.6-6.8,10.4-6.8c6.5,0,11,5.1,11,11c0,3.1-1.7,5.9-3.1,8.2l-72.9,101.4v68.1c0,6.5-4.8,11.3-11.3,11.3
			s-11.3-4.8-11.3-11.3V245.3L975.1,245.3z"/>
		<path class="st1" d="M1113.9,136.8c0-6.5,5.1-11.3,11-11.3h62.8c44.5,0,73.8,23.7,73.8,62.5v0.6c0,42.5-35.5,64.5-77.4,64.5h-47.9
			v59.7c0,6.5-4.8,11.3-11.3,11.3c-5.9,0-11-4.8-11-11.3L1113.9,136.8L1113.9,136.8z M1184.8,232.9c32.7,0,54.1-17.5,54.1-43.4v-0.6
			c0-28.2-21.1-42.8-52.9-42.8h-49.8v86.7L1184.8,232.9L1184.8,232.9z"/>
		<path class="st1" d="M1313,322.7c-5.9,0-11-4.8-11-11.3V136.8c0-6.5,5.1-11.3,11-11.3h122.5c5.6,0,10.1,4.5,10.1,10.1
			s-4.5,10.1-10.1,10.1h-111.2V213h98.6c5.6,0,10.1,4.8,10.1,10.1c0,5.6-4.5,10.1-10.1,10.1h-98.6v69H1437c5.6,0,10.1,4.5,10.1,10.1
			s-4.5,10.1-10.1,10.1L1313,322.7L1313,322.7z"/>
		<path class="st1" d="M1540.2,233.7h-49.3c-5.6,0-10.4-4.5-10.4-10.1s4.8-10.1,10.4-10.1h49.3v-48.7c0-5.9,4.8-10.4,10.7-10.4
			c5.6,0,10.4,4.5,10.4,10.4v48.7h49.6c5.6,0,10.1,4.5,10.1,10.1s-4.5,10.1-10.1,10.1h-49.6v48.7c0,5.9-4.8,10.4-10.4,10.4
			c-5.9,0-10.7-4.5-10.7-10.4V233.7z"/>
		<path class="st1" d="M1716.2,233.7h-49.3c-5.6,0-10.4-4.5-10.4-10.1s4.8-10.1,10.4-10.1h49.3v-48.7c0-5.9,4.8-10.4,10.7-10.4
			c5.6,0,10.4,4.5,10.4,10.4v48.7h49.6c5.6,0,10.1,4.5,10.1,10.1s-4.5,10.1-10.1,10.1h-49.6v48.7c0,5.9-4.8,10.4-10.4,10.4
			c-5.9,0-10.7-4.5-10.7-10.4V233.7z"/>
	</g>
	<g>
		<g>
			<path class="st2" d="M594.5,363.8c-4.7-6.5-12.3-10.4-20.3-10.4H296c-8.1,0-15.6,3.9-20.3,10.4l-44.9,61.8
				c-3.2,4.6,0,10.7,5.5,10.7h397.8c5.5,0,8.8-6.2,5.5-10.7L594.5,363.8z"/>
			<path class="st2" d="M616.6,33.6c-9.8,0-17.7,8-17.7,17.7v283.4c0,5.4,1.6,10.4,4.9,14.8l41,56.4c3.9,5.2,12.2,2.6,12.2-3.9V73.9
				C656.9,51.6,638.8,33.6,616.6,33.6z"/>
			<path class="st2" d="M271.3,334.7V51.5c0-9.8-8-17.7-17.7-17.7c-22.3,0-40.3,18-40.3,40.3v328.1c0,6.5,8.3,9.3,12.2,3.9l41-56.4
				C269.5,345.3,271.3,340.1,271.3,334.7z"/>
			<path class="st2" d="M312.2,337.6h245.7c13.8,0,25.2-11.2,25.2-25.2V60.7c0-18.7-15.1-33.8-33.8-33.8H320.8
				c-18.7,0-34,15.1-34,33.8v251.7C287,326.4,298.2,337.6,312.2,337.6z M377.1,165.7h34.3v-34.3c0-13.7,11-24.5,24.5-24.5
				c13.6,0,24.5,11,24.5,24.5v34.3h34.3c13.6,0,24.5,11,24.5,24.5c0,13.7-11,24.5-24.5,24.5h-34.3V249c0,13.7-11,24.5-24.5,24.5
				c-13.6,0-24.5-11.1-24.5-24.5v-34.3h-34.3c-13.6,0-24.5-11-24.5-24.5S363.4,165.7,377.1,165.7z"/>
		</g>
		<g>
			<path class="st3" d="M584.2,365.6c-4.7-6.5-12.3-10.4-20.3-10.4H285.7c-8.1,0-15.6,3.9-20.3,10.4l-44.9,61.8
				c-3.2,4.6,0,10.7,5.5,10.7h397.8c5.5,0,8.8-6.2,5.5-10.7L584.2,365.6z"/>
			<path class="st3" d="M606.3,35.5c-9.8,0-17.7,8-17.7,17.7v283.4c0,5.4,1.6,10.4,4.9,14.8l41,56.4c3.9,5.2,12.2,2.6,12.2-3.9V75.8
				C646.6,53.6,628.6,35.5,606.3,35.5z"/>
			<path class="st3" d="M261,336.7V53.3c0-9.8-8-17.7-17.7-17.7c-22.3,0-40.3,18-40.3,40.3V404c0,6.5,8.3,9.3,12.2,3.9l41-56.4
				C259.4,347.1,261,342,261,336.7z"/>
			<path class="st3" d="M302,339.4h245.9c13.8,0,25.2-11.2,25.2-25.2V62.7c0-18.7-15.1-33.8-34-33.8H310.8c-18.7,0-34,15.1-34,33.8
				v251.7C276.8,328.2,288,339.4,302,339.4z M366.8,167.5h34.3v-34.3c0-13.7,11-24.5,24.5-24.5c13.6,0,24.5,11,24.5,24.5v34.3h34.6
				c13.6,0,24.5,11,24.5,24.5c0,13.7-11,24.5-24.5,24.5h-34.3v34.3c0,13.7-11,24.5-24.5,24.5c-13.6,0-24.5-11.1-24.5-24.5v-34.3
				h-34.3c-13.6,0-24.5-11-24.5-24.5C342.3,178.5,353.2,167.5,366.8,167.5z"/>
		</g>
		<g>
			<path class="st1" d="M589.4,365.6c-4.7-6.5-12.3-10.4-20.3-10.4H290.8c-8.1,0-15.6,3.9-20.3,10.4l-44.9,61.8
				c-3.2,4.6,0,10.7,5.5,10.7h397.8c5.5,0,8.8-6.2,5.5-10.7L589.4,365.6z"/>
			<path class="st1" d="M611.5,35.5c-9.8,0-17.7,8-17.7,17.7v283.4c0,5.4,1.6,10.4,4.9,14.8l41,56.4c3.9,5.2,12.2,2.6,12.2-3.9V75.8
				C651.8,53.6,633.8,35.5,611.5,35.5z"/>
			<path class="st1" d="M266.1,336.7V53.3c0-9.8-8-17.7-17.7-17.7c-22.3,0-40.3,18-40.3,40.3V404c0,6.5,8.3,9.3,12.2,3.9l41-56.4
				C264.4,347.1,266.1,342,266.1,336.7z"/>
			<path class="st1" d="M307,339.4h245.9c13.8,0,25.2-11.2,25.2-25.2V62.7c0-18.7-15.1-33.8-33.8-33.8H315.8
				c-18.7,0-34,15.1-34,33.8v251.7C281.8,328.2,293.2,339.4,307,339.4z M371.9,167.5h34.3v-34.3c0-13.7,11-24.5,24.5-24.5
				c13.6,0,24.5,11,24.5,24.5v34.3h34.3c13.6,0,24.5,11,24.5,24.5c0,13.7-11,24.5-24.5,24.5h-34v34.3c0,13.7-11,24.5-24.5,24.5
				c-13.6,0-24.5-11.1-24.5-24.5v-34.3h-34.3c-13.6,0-24.5-11-24.5-24.5C347.3,178.5,358.4,167.5,371.9,167.5z"/>
		</g>
	</g>
</g>
</svg>
